<?xml version="1.0" standalone="no"?>
<!DOCTYPE svg PUBLIC "-//W3C//DTD SVG 20010904//EN"
 "http://www.w3.org/TR/2001/REC-SVG-20010904/DTD/svg10.dtd">
<svg version="1.0" xmlns="http://www.w3.org/2000/svg"
 width="1280.000000pt" height="1280.000000pt" viewBox="0 0 1280.000000 1280.000000"
 preserveAspectRatio="xMidYMid meet">
<metadata>
Created by potrace 1.11, written by Peter Selinger 2001-2013
</metadata>
<g transform="translate(0.000000,1280.000000) scale(0.100000,-0.100000)"
fill="#000000" stroke="none">
<path d="M2250 12777 c-99 -37 -185 -150 -210 -277 -5 -30 -12 -66 -15 -80 -7
-39 -8 -157 -1 -168 3 -6 2 -13 -4 -17 -6 -4 -8 -10 -5 -14 2 -5 7 -37 10 -72
6 -67 15 -140 21 -174 2 -11 9 -48 15 -82 7 -42 15 -61 23 -56 8 4 8 3 0 -6
-9 -9 -5 -36 13 -104 35 -135 34 -130 19 -118 -13 11 -85 39 -121 47 -80 18
-122 22 -210 19 -55 -2 -112 -8 -127 -14 -16 -6 -28 -9 -28 -6 0 10 -142 -39
-208 -72 -128 -64 -168 -109 -237 -268 -34 -77 -37 -89 -36 -152 0 -45 37
-179 60 -221 5 -8 0 -45 -11 -86 -10 -39 -19 -96 -20 -126 -2 -59 10 -169 20
-185 4 -5 7 -15 8 -21 4 -22 68 -154 75 -154 4 0 -3 -33 -17 -72 -30 -87 -38
-194 -19 -263 16 -62 47 -135 57 -135 5 0 8 -7 8 -15 0 -8 3 -15 8 -15 9 0 44
-63 50 -88 5 -26 15 -108 27 -235 3 -27 11 -63 19 -80 16 -38 68 -97 84 -97 7
0 12 -4 12 -8 0 -9 55 -37 113 -58 126 -45 299 -33 425 28 77 38 286 258 332
349 33 65 43 78 142 186 94 103 157 218 172 317 4 21 8 41 10 45 8 12 19 205
18 316 -1 118 -8 270 -18 375 -3 36 -7 83 -9 105 -13 163 2 925 20 1015 10 53
15 119 21 255 5 123 3 148 -15 202 -43 133 -144 246 -256 284 -60 20 -154 19
-215 -4z"/>
<path d="M6332 12669 c-101 -17 -190 -66 -272 -150 -75 -78 -115 -124 -112
-132 1 -5 -2 -6 -7 -3 -12 8 -51 -45 -86 -114 -15 -30 -30 -57 -34 -60 -3 -3
-18 -21 -33 -40 -15 -19 -54 -64 -87 -99 -42 -44 -74 -93 -105 -155 -40 -83
-51 -120 -72 -241 -16 -88 -8 -516 13 -710 14 -129 2 -939 -16 -1060 -25 -175
-32 -319 -18 -406 5 -32 14 -59 19 -59 5 0 7 -4 4 -9 -8 -13 60 -121 107 -169
141 -145 357 -141 481 11 69 84 100 203 100 387 0 92 -11 267 -18 279 -2 3 -7
29 -10 56 -4 28 -11 68 -16 90 -5 22 -12 54 -15 70 -3 17 -7 35 -9 40 -1 6 -8
37 -15 70 -7 33 -18 66 -23 72 -8 10 -3 10 23 1 19 -6 39 -15 45 -20 6 -4 50
-17 97 -27 98 -21 218 -20 322 3 155 34 259 84 347 165 48 44 94 123 96 165 0
5 4 12 9 15 15 11 35 76 40 131 3 46 -2 76 -31 161 -29 86 -34 112 -26 138 5
17 6 31 3 31 -3 0 1 7 8 16 9 11 13 48 14 118 0 136 -11 183 -69 292 l-35 66
24 73 c52 154 34 277 -61 420 -48 73 -54 100 -70 290 -10 122 -55 190 -163
244 -98 49 -233 68 -349 50z"/>
<path d="M10745 11744 c-27 -6 -82 -23 -122 -37 -40 -13 -74 -23 -76 -21 -2 3
-14 7 -26 9 -11 3 -31 7 -43 10 -92 22 -150 23 -238 7 -71 -13 -188 -59 -220
-87 -12 -11 -27 -9 -87 11 -95 32 -164 39 -238 23 -61 -12 -184 -69 -205 -94
-24 -28 -81 -40 -290 -60 -108 -10 -175 -57 -225 -155 -78 -153 -78 -341 -2
-499 18 -36 154 -191 169 -191 2 0 29 -24 60 -54 31 -30 80 -67 110 -82 61
-31 111 -68 185 -138 103 -96 162 -131 288 -170 141 -44 489 -51 810 -18 126
13 1069 3 1092 -11 16 -10 186 -25 293 -27 85 -1 124 5 190 32 97 38 194 120
223 188 6 14 18 33 26 43 11 13 15 43 15 105 1 77 -2 94 -29 146 -33 65 -88
119 -152 148 -24 10 -44 18 -45 18 -2 -1 -16 4 -33 10 -114 44 -384 39 -640
-12 -161 -32 -184 -37 -236 -52 -41 -13 -49 -13 -49 -1 0 8 4 16 9 19 4 3 16
34 26 68 10 35 20 70 23 78 2 8 5 61 7 118 3 148 -24 271 -92 409 -45 93 -129
183 -188 203 -22 8 -43 13 -47 12 -5 -1 -8 3 -8 8 0 6 -9 10 -20 10 -11 0 -20
4 -20 9 0 9 -75 30 -122 35 -12 1 -45 -3 -73 -10z"/>
<path d="M1800 7897 c-3 -3 -33 -7 -68 -10 -35 -4 -66 -8 -70 -11 -4 -2 -28
-7 -52 -11 -71 -10 -226 -63 -335 -114 -369 -174 -655 -481 -800 -861 -20 -52
-38 -102 -40 -110 -50 -211 -53 -228 -61 -385 -7 -136 7 -299 37 -420 11 -44
22 -87 24 -95 35 -144 177 -413 290 -550 80 -96 332 -320 361 -320 4 0 15 -6
23 -14 18 -16 186 -103 246 -128 320 -129 701 -147 1032 -49 37 11 70 20 73
20 5 0 93 38 160 69 372 173 676 515 809 910 77 226 102 446 78 682 -10 102
-54 298 -77 339 -4 9 -8 18 -8 21 -1 5 -18 55 -29 80 -3 8 -7 17 -8 20 -4 11
-57 116 -68 135 -95 160 -153 234 -277 356 -121 118 -241 205 -392 282 -124
64 -234 102 -378 133 -36 7 -76 16 -90 20 -29 7 -374 17 -380 11z m365 -243
c227 -40 455 -142 624 -279 56 -45 180 -174 221 -230 25 -33 47 -62 50 -65 29
-28 150 -279 155 -320 0 -3 3 -9 6 -15 6 -9 36 -122 44 -165 13 -70 19 -142
18 -250 0 -111 -3 -150 -17 -250 -16 -107 -93 -313 -160 -427 -182 -310 -486
-540 -831 -627 -133 -33 -182 -39 -330 -39 -116 0 -162 3 -230 16 -11 3 -38 8
-60 12 -145 26 -373 129 -505 229 -316 237 -492 544 -545 951 -6 42 -6 212 -1
255 12 99 20 142 33 195 21 83 63 205 81 233 8 12 11 22 8 22 -4 0 5 17 19 37
14 21 25 41 25 45 0 8 69 119 79 128 3 3 19 23 35 45 32 45 233 245 246 245 5
0 15 6 22 13 21 20 140 94 183 114 22 10 43 23 47 28 4 6 8 6 8 1 0 -5 6 -4
13 2 25 20 205 75 302 92 123 22 348 24 460 4z"/>
<path d="M2733 7056 c-83 -26 -97 -39 -564 -500 -431 -425 -473 -464 -506
-472 -58 -15 -89 64 -117 296 -12 100 -27 140 -66 175 -30 27 -112 26 -172 -3
-57 -28 -132 -103 -160 -161 -21 -42 -23 -60 -22 -191 0 -130 11 -317 19 -330
2 -3 6 -32 9 -64 4 -32 8 -62 11 -66 2 -3 6 -19 9 -34 10 -54 74 -132 136
-164 14 -7 43 -22 65 -34 78 -40 130 -34 222 28 114 76 310 263 608 578 77 81
163 172 190 201 400 419 384 401 422 483 19 40 25 71 26 125 1 69 -16 137 -33
137 -5 0 -14 2 -22 4 -7 3 -32 -1 -55 -8z"/>
<path d="M10497 7894 c-1 -2 -34 -8 -72 -14 -39 -7 -83 -14 -100 -17 -45 -7
-237 -73 -262 -89 -13 -8 -23 -12 -23 -10 0 5 -114 -51 -155 -77 -200 -122
-385 -295 -501 -467 -123 -181 -219 -409 -250 -590 -3 -14 -7 -31 -9 -39 -22
-61 -22 -485 -1 -520 2 -3 7 -22 10 -41 30 -182 139 -442 249 -597 381 -534
1003 -776 1642 -639 111 23 217 61 340 121 318 155 559 394 718 710 60 119
107 253 131 368 8 39 18 86 21 102 15 66 14 360 0 450 -23 142 -23 144 -62
264 -101 319 -306 600 -580 797 -115 84 -361 206 -458 228 -5 2 -28 8 -50 14
-22 6 -53 14 -70 16 -16 3 -41 8 -55 11 -79 17 -162 23 -303 22 -86 0 -158 -2
-160 -3z m294 -228 c48 -3 93 -8 100 -11 8 -3 28 -7 44 -9 101 -13 252 -66
374 -132 73 -40 163 -96 181 -114 3 -3 34 -30 70 -60 35 -30 80 -73 100 -95
19 -21 42 -47 51 -56 25 -25 102 -139 129 -189 14 -25 29 -52 36 -60 34 -46
113 -286 128 -392 22 -150 22 -335 1 -438 -3 -14 -8 -41 -11 -60 -3 -19 -8
-38 -10 -41 -2 -3 -6 -21 -9 -39 -3 -19 -11 -40 -17 -47 -6 -7 -8 -13 -5 -13
6 0 -29 -92 -60 -160 -9 -19 -36 -69 -61 -110 -193 -320 -512 -550 -869 -625
-677 -144 -1347 240 -1561 895 -69 209 -86 455 -46 664 2 12 6 35 10 51 11 58
57 191 94 272 148 322 430 577 769 698 77 27 130 42 186 51 22 3 43 8 47 10 3
2 53 7 110 10 56 4 105 8 106 10 2 1 9 1 15 -1 7 -2 51 -6 98 -9z"/>
<path d="M10588 7204 c-2 -1 -25 -5 -53 -8 -65 -7 -147 -31 -212 -62 -61 -29
-64 -43 -33 -113 11 -24 20 -50 20 -57 0 -25 25 -26 76 -1 154 76 338 62 417
-32 59 -71 63 -193 10 -302 -34 -68 -103 -166 -186 -263 -33 -37 -86 -140
-107 -205 -20 -62 -27 -153 -20 -238 l4 -43 103 0 103 0 1 83 c0 45 2 92 5
104 8 47 47 134 83 189 34 53 48 71 93 124 138 160 199 290 200 428 0 45 -5
97 -12 115 -56 149 -138 226 -280 263 -55 14 -203 27 -212 18z"/>
<path d="M10571 5669 c-78 -16 -132 -93 -124 -176 5 -59 29 -101 74 -131 44
-31 129 -28 176 6 62 44 84 143 48 216 -34 67 -102 100 -174 85z"/>
<path d="M6169 7866 c-2 -2 -29 -6 -59 -9 -75 -7 -192 -28 -211 -38 -9 -4 -31
-11 -49 -14 -55 -10 -247 -91 -334 -141 -281 -162 -497 -392 -636 -679 -49
-101 -104 -247 -113 -301 -3 -16 -10 -49 -15 -74 -45 -191 -43 -433 4 -645 93
-420 314 -737 700 -1003 50 -34 220 -117 304 -147 46 -17 174 -52 220 -61 14
-2 34 -6 46 -9 85 -19 311 -25 444 -11 403 40 811 268 1058 591 25 33 49 62
52 65 13 11 100 161 130 226 106 226 155 442 154 679 -1 193 -23 327 -85 508
-35 104 -137 321 -158 337 -4 3 -18 23 -31 45 -13 22 -27 42 -30 45 -3 3 -21
25 -40 50 -43 56 -179 193 -240 242 -219 174 -513 300 -778 334 -55 7 -328 15
-333 10z m351 -244 c25 -6 58 -13 73 -16 38 -7 135 -35 171 -49 39 -16 215
-103 241 -119 246 -158 448 -405 545 -669 64 -171 85 -298 84 -495 -2 -214
-56 -427 -158 -614 -26 -49 -43 -76 -97 -156 -15 -23 -93 -116 -115 -138 -133
-131 -255 -218 -406 -289 -71 -33 -205 -80 -260 -91 -13 -3 -48 -10 -78 -16
-68 -14 -338 -21 -388 -9 -20 4 -53 10 -72 12 -138 18 -347 97 -484 185 -193
123 -378 324 -477 520 -80 159 -123 302 -145 482 -5 41 -5 234 0 270 2 14 7
50 11 80 4 30 9 58 11 61 2 3 6 20 9 38 18 105 113 323 185 428 69 101 82 116
180 213 190 192 443 325 695 367 17 3 48 8 70 13 55 11 350 5 405 -8z"/>
<path d="M6734 7063 c-143 -132 -373 -364 -448 -454 -15 -17 -28 -30 -30 -28
-2 2 -56 83 -119 179 -148 223 -174 254 -209 245 -19 -5 -29 -15 -33 -36 -9
-40 -33 -52 -58 -28 -23 21 -40 13 -78 -35 -22 -28 -22 -29 -5 -84 34 -110
106 -283 171 -414 l66 -131 -24 -26 c-52 -57 -224 -257 -267 -311 -19 -24 -47
-58 -62 -76 -28 -31 -36 -68 -19 -78 16 -10 19 -61 5 -88 -13 -25 -13 -32 1
-58 15 -28 61 -80 71 -80 3 0 13 4 23 9 21 12 46 -2 38 -21 -7 -19 24 -58 48
-62 15 -2 41 25 103 108 111 149 136 181 202 264 56 72 79 97 83 91 1 -2 25
-38 51 -79 40 -61 119 -168 183 -247 15 -20 45 -9 80 27 l27 29 32 -19 c17
-11 34 -20 36 -20 14 0 58 52 64 74 3 14 21 34 39 45 19 11 40 32 48 48 32 62
31 67 -26 135 -84 100 -267 337 -267 345 1 11 107 143 219 272 65 76 70 81
177 192 44 46 91 101 103 121 l22 37 -22 31 c-16 21 -31 30 -51 30 -28 0 -55
31 -43 51 10 15 -21 56 -53 73 -28 14 -30 13 -78 -31z"/>
<path d="M10538 2985 c-2 -2 -25 -6 -53 -9 -68 -9 -207 -42 -280 -67 -61 -20
-237 -105 -287 -137 -147 -95 -289 -223 -382 -345 -75 -98 -148 -222 -186
-315 -17 -42 -35 -86 -40 -97 -12 -24 -56 -203 -65 -262 -38 -243 -4 -545 86
-758 7 -16 13 -32 14 -35 53 -161 261 -434 435 -571 142 -112 358 -223 503
-260 94 -23 165 -38 227 -45 79 -10 298 -10 360 -1 239 37 446 115 629 237
241 163 416 377 539 660 23 51 69 200 76 245 10 61 16 96 22 128 14 77 10 294
-8 397 -18 107 -19 112 -32 165 -16 64 -69 202 -96 250 -15 28 -27 52 -27 55
-1 11 -61 106 -115 181 -124 170 -327 342 -508 430 -171 82 -267 113 -468 147
-46 8 -337 14 -344 7z"/>
<path d="M1804 2929 c-21 -4 -59 -10 -84 -13 -72 -10 -229 -54 -310 -88 -251
-103 -459 -266 -619 -483 -86 -117 -83 -113 -140 -230 -66 -135 -115 -283
-128 -385 -2 -19 -8 -59 -12 -88 -7 -48 -6 -312 2 -357 2 -11 7 -40 12 -65 90
-520 473 -960 980 -1128 157 -52 252 -67 440 -67 94 0 197 4 229 8 75 11 242
54 280 73 16 8 34 14 41 14 27 0 252 120 306 164 14 12 43 34 65 50 62 47 217
206 259 266 22 30 42 57 45 60 12 10 88 147 117 210 30 65 87 232 98 286 6 34
12 69 24 144 16 97 6 354 -18 465 -51 240 -159 467 -305 640 -250 297 -568
470 -956 522 -64 8 -280 9 -326 2z"/>
<path d="M6070 2899 c-318 -48 -594 -190 -824 -424 -185 -188 -329 -459 -382
-720 -2 -11 -6 -31 -9 -45 -25 -107 -24 -415 0 -500 2 -8 7 -30 10 -48 16 -93
69 -250 118 -347 134 -267 339 -481 605 -632 51 -29 99 -53 106 -53 7 0 16 -4
21 -9 21 -18 223 -82 305 -96 14 -2 45 -7 70 -11 58 -10 332 -11 390 -2 25 4
59 10 76 12 135 20 359 105 482 183 29 18 56 33 61 33 5 0 11 3 13 8 2 4 30
27 63 51 78 56 238 219 296 301 127 180 221 394 254 582 29 161 29 421 0 553
-9 44 -18 85 -19 90 -11 55 -69 206 -113 292 -176 348 -476 605 -846 727 -208
69 -453 89 -677 55z"/>
</g>
</svg>
